<svg xmlns="http://www.w3.org/2000/svg" viewBox="0 0 64 64" width="64" height="64">
  <!-- House silhouette -->
  <path d="M32 6 L6 26 V58 H26 V42 H38 V58 H58 V26 L32 6Z" fill="#002366"/>
  <!-- KE monogram -->
  <g fill="#ffffff">
    <!-- K -->
    <path d="M20 30 H25 L30 38 L35 30 H40 L32 42 L41 58 H36 L28 44 L24 52 V58 H20 V30Z"/>
    <!-- E -->
    <path d="M44 30 H52 C55 30 56 31.5 56 34 C56 36 55 37 53 37.5 C54.5 38.5 55 40 55 42 C55 44.5 53.5 46 50 46 H44 V30ZM48 32 V36 H51 C52 36 52 35 52 34 C52 32.5 51.5 32 50 32 H48ZM48 39 V44 H51.5 C53 44 53.5 43.5 53.5 42 C53.5 40.5 53 39 51.5 39 H48Z"/>
  </g>
</svg>